<?xml version="1.0" encoding="iso-8859-1"?>
<!-- Generator: Adobe Illustrator 16.0.0, SVG Export Plug-In . SVG Version: 6.00 Build 0)  -->
<!DOCTYPE svg PUBLIC "-//W3C//DTD SVG 1.1//EN" "http://www.w3.org/Graphics/SVG/1.1/DTD/svg11.dtd">
<svg version="1.1" id="Capa_1" xmlns="http://www.w3.org/2000/svg" xmlns:xlink="http://www.w3.org/1999/xlink" x="0px" y="0px"
	 width="280.375px" height="280.375px" viewBox="0 0 280.375 280.375" style="enable-background:new 0 0 280.375 280.375;"
	 xml:space="preserve">
<g>
	<g>
		<path d="M140.188,14.337c69.395,0,125.848,56.456,125.848,125.848c0,3.962,3.206,7.168,7.169,7.168
			c3.962,0,7.169-3.206,7.169-7.168C280.373,62.889,217.483,0,140.188,0c-3.962,0-7.168,3.207-7.168,7.169
			C133.019,11.131,136.23,14.337,140.188,14.337z"/>
		<path d="M140.188,280.375c3.963,0,7.169-3.206,7.169-7.169c0-3.962-3.206-7.168-7.169-7.168
			c-51.427,0-95.724-31.022-115.228-75.332l17.529-5.539c1.979,6.543,9.166,24.311,32.172,42.139
			c0.434,0.336,0.952,0.499,1.463,0.499c0.716,0,1.419-0.312,1.893-0.929c0.807-1.041,0.616-2.539-0.427-3.351
			c-21.94-16.998-28.754-34.069-30.523-39.811l37.367-11.817c11.871,25.025,37.311,42.405,66.8,42.405
			c2.637,0,4.779-2.138,4.779-4.778c0-2.638-2.143-4.779-4.779-4.779c-35.521,0-64.415-28.895-64.415-64.406
			c0-35.519,28.894-64.415,64.415-64.415c2.637,0,4.779-2.14,4.779-4.779c0-2.637-2.143-4.779-4.779-4.779
			c-26.019,0-48.897,13.534-62.088,33.899L64.077,80.204c6.585-8.398,14.499-15.687,23.468-21.527l8.436,9.603
			c0.474,0.535,1.127,0.812,1.792,0.812c0.542,0,1.085-0.182,1.529-0.556c0.121-0.101,12.183-9.964,28.441-10.657
			c1.318-0.056,2.343-1.169,2.29-2.49c-0.052-1.319-1.242-2.35-2.49-2.285c-14.204,0.602-25.209,7.351-29.44,10.352l-6.413-7.302
			c12.9-7.514,27.667-12.081,43.437-12.904c1.113,2.511,3.619,4.268,6.548,4.268c11.969,0,23.613,2.256,34.604,6.707
			c0.887,0.357,1.792,0.525,2.688,0.525c1.567,0,3.07-0.564,4.312-1.505c7.468,3.736,14.375,8.387,20.597,13.845
			c-0.397,2.264,0.163,4.665,1.945,6.385c8.583,8.3,15.383,18.022,20.204,28.889c0.942,2.116,2.791,3.512,4.877,4.019
			c2.88,7.787,4.84,16.001,5.619,24.574c-1.661,1.363-2.716,3.438-2.642,5.754c0.028,1.018,0.047,2.037,0.047,3.064
			c0,10.926-1.886,21.613-5.609,31.76c-0.812,2.222-0.439,4.583,0.774,6.422c-3.36,7.775-7.738,14.995-12.919,21.562
			c-2.212-0.252-4.499,0.401-6.109,2.18c-8.013,8.844-17.506,15.962-28.212,21.151c-2.432,1.181-3.859,3.552-4,6.072
			c-7.378,3.127-15.257,5.255-23.424,6.463c-1.321-2.272-3.817-3.742-6.646-3.556c-2.017,0.131-4.052,0.2-6.107,0.2
			c-3.962,0-7.168,3.211-7.168,7.169c0,3.962,3.207,7.169,7.168,7.169c2.373,0,4.716-0.075,7.045-0.229
			c3.416-0.22,6.1-2.811,6.604-6.062c8.34-1.251,16.381-3.417,23.923-6.581c1.367,1.871,3.481,2.978,5.731,2.978
			c1.055,0,2.109-0.224,3.117-0.719c12.373-5.992,23.331-14.216,32.586-24.432c2.524-2.787,2.366-6.969-0.159-9.666
			c4.947-6.394,9.167-13.366,12.48-20.848c0.682,0.2,1.362,0.364,2.035,0.364c2.921,0,5.67-1.802,6.729-4.705
			c4.308-11.737,6.487-24.082,6.487-36.697c0-1.181-0.019-2.352-0.057-3.519c-0.121-3.818-3.262-6.781-6.991-6.905
			c-0.84-8.177-2.753-16.02-5.428-23.513c3.397-1.71,4.905-5.778,3.347-9.29c-5.577-12.555-13.432-23.786-23.345-33.375
			c-2.632-2.55-6.679-2.569-9.456-0.294c-6.197-5.339-13.039-9.917-20.404-13.651c0.794-3.388-0.938-6.938-4.266-8.281
			c-12.703-5.146-26.159-7.757-39.985-7.757c-3.311,0-6.069,2.256-6.891,5.306c-17.315,0.917-33.454,6.158-47.413,14.713
			c-0.364,0.086-0.718,0.235-1.02,0.497c-0.075,0.067-0.109,0.154-0.17,0.226c-28.513,18.001-47.548,49.707-47.548,85.846
			c0,1.32,1.071,2.39,2.39,2.39s2.39-1.069,2.39-2.39c0-20.757,6.63-39.964,17.798-55.739l25.434,20.353
			c-5.956,10.655-9.376,22.901-9.376,35.955c0,9.596,1.893,18.738,5.234,27.158l-59.382,18.78
			c-5.643-14.281-8.779-29.823-8.779-46.093c0-30.224,10.867-59.442,30.611-82.266c2.59-2.992,2.259-7.523-0.737-10.114
			c-2.996-2.59-7.521-2.266-10.111,0.737C12.113,73.976,0.002,106.526,0.002,140.189C0.002,217.486,62.892,280.375,140.188,280.375z
			"/>
		<path d="M151.234,200.526c33.5,0,60.756-27.256,60.756-60.757c0-33.502-27.256-60.756-60.756-60.756
			c-2.642,0-4.779,2.14-4.779,4.779c0,2.637,2.138,4.779,4.779,4.779c28.227,0,51.198,22.966,51.198,51.197
			c0,28.227-22.972,51.198-51.198,51.198c-2.642,0-4.779,2.143-4.779,4.779C146.455,198.389,148.593,200.526,151.234,200.526z"/>
		<path d="M164.741,218.447c6.235-1.391,12.11-3.528,17.637-6.226l-2.399-4.149c-5.101,2.465-10.533,4.43-16.283,5.708
			c-1.288,0.289-2.1,1.559-1.811,2.856C162.174,217.925,163.448,218.737,164.741,218.447z"/>
		<path d="M188.31,203.392l2.403,4.148c9.265-6.006,17.119-13.847,23.126-23.022l-4.145-2.39
			C204.117,190.58,196.851,197.81,188.31,203.392z"/>
		<path d="M209.293,97.958l4.14-2.39c-6.025-8.998-13.847-16.799-22.957-22.854l-2.39,4.144
			C196.481,82.481,203.697,89.671,209.293,97.958z"/>
		<path d="M214.39,173.807l4.153,2.395c4.751-9.582,7.649-20.231,8.308-31.493h-4.779
			C221.428,155.102,218.748,164.93,214.39,173.807z"/>
		<path d="M179.82,72.06l2.395-4.144c-5.488-2.782-11.295-5.012-17.437-6.494c-1.278-0.311-2.576,0.483-2.884,1.757
			c-0.317,1.277,0.485,2.577,1.759,2.884C169.343,67.437,174.738,69.493,179.82,72.06z"/>
		<path d="M218.226,103.836l-4.13,2.385c4.531,8.912,7.327,18.715,7.985,28.926h4.778
			C226.192,124.084,223.164,113.466,218.226,103.836z"/>
		<path d="M151.234,105.294c19.35,0,35.041,15.688,35.041,35.045c0,19.354-15.691,35.045-35.041,35.045
			c-19.356,0-35.047-15.69-35.047-35.045C116.187,120.982,131.878,105.294,151.234,105.294z"/>
	</g>
</g>
<g>
</g>
<g>
</g>
<g>
</g>
<g>
</g>
<g>
</g>
<g>
</g>
<g>
</g>
<g>
</g>
<g>
</g>
<g>
</g>
<g>
</g>
<g>
</g>
<g>
</g>
<g>
</g>
<g>
</g>
</svg>
